<?xml version="1.0" encoding="UTF-8" standalone="no"?>
<svg width="127px" height="12px" viewBox="0 0 127 12" version="1.1" xmlns="http://www.w3.org/2000/svg" xmlns:xlink="http://www.w3.org/1999/xlink">
    <!-- Generator: Sketch 46.2 (44496) - http://www.bohemiancoding.com/sketch -->
    <title>Sine_waves_different_frequencies</title>
    <desc>Created with Sketch.</desc>
    <defs></defs>
    <g id="Page-1" stroke="none" stroke-width="1" fill="none" fill-rule="evenodd">
        <g id="Sine_waves_different_frequencies" transform="translate(1.000000, 1.000000)" stroke="#B0B0B0">
            <path d="M0,5.00057993 C1.24463204,7.50028997 2.4892659,10 3.90814665,10 M7.81270561,5.00049494 C6.56807174,7.50020498 5.32343971,9.99991501 3.90455696,9.99991501 M7.81244883,5.00092489 C9.05708454,2.50121486 10.3017164,0.00150482544 11.7205973,0.00150482544 M15.6251581,5.00100988 C14.3805224,2.50129985 13.1358904,0.00158981558 11.7170076,0.00158981558 M15.6244326,4.99980002 C16.8690665,7.49951006 18.1136985,9.99922009 19.5325813,9.99922009 M23.4371414,4.99971503 C22.1925065,7.49942507 20.9478761,9.9991351 19.5289916,9.9991351 M23.4368831,5.00014498 C24.6815158,2.50043495 25.9261485,0.00072491591 27.3450319,0.00072491591 M31.2495866,5.00022997 C30.0049538,2.50051994 28.7603211,0.000809906051 27.3414427,0.000809906051 M31.2494266,4.99985502 C32.494056,7.49956505 33.738692,9.99927508 35.1575721,9.99927508 M39.0621317,4.99977003 C37.8174973,7.49948006 36.572863,9.99919009 35.1539829,9.99919009 M39.0618884,5.00019998 C40.3065211,2.50048994 41.5511555,0.00077990953 42.9700339,0.00077990953 M46.8745952,5.00028497 C45.6299608,2.50057493 44.3853298,0.000864899672 42.9664464,0.000864899672 M46.8738554,4.99907511 C48.1184847,7.49878514 49.3631208,9.99849517 50.7820025,9.99849517 M54.6865605,4.99899012 C53.4419278,7.49870015 52.1972934,9.99841018 50.7784117,9.99841018 M54.6863172,4.99942007 C55.9309499,2.49971003 57.1755843,0 58.5944693,0 M62.499024,4.99950506 C61.2543913,2.49979502 60.0097569,8.49901411e-05 58.5908768,8.49901411e-05 M62.5009702,5.00057993 C63.7456029,7.50028997 64.9902356,10 66.4091207,10 M70.3136786,5.00049494 C69.0690459,7.50020498 67.8244132,9.99991501 66.4055282,9.99991501 M70.3134204,5.00092489 C71.5580547,2.50121486 72.8026874,0.00150482544 74.2215708,0.00150482544 M78.1261321,5.00100988 C76.8814978,2.50129985 75.6368617,0.00158981558 74.2179817,0.00158981558 M78.125404,4.99980002 C79.37004,7.49951006 80.6146727,9.99922009 82.0335528,9.99922009 M85.9381124,4.99971503 C84.6934814,7.49942507 83.4488453,9.9991351 82.0299669,9.9991351 M85.9378575,5.00014498 C87.1824885,2.50043495 88.4271229,0.00072491591 89.8460046,0.00072491591 M93.7505626,5.00022997 C92.5059299,2.50051994 91.2612972,0.000809906051 89.8424138,0.000809906051 M93.7504026,4.99985502 C94.9950353,7.49956505 96.2396714,9.99927508 97.6585498,9.99927508 M101.563109,4.99977003 C100.318477,7.49948006 99.0738423,9.99919009 97.6549622,9.99919009 M101.562866,5.00019998 C102.8075,2.50048994 104.052132,0.00077990953 105.471015,0.00077990953 M109.375575,5.00028497 C108.13094,2.50057493 106.886309,0.000864899672 105.467426,0.000864899672 M109.374831,4.99907511 C110.619467,7.49878514 111.864093,9.99849517 113.282975,9.99849517 M117.187533,4.99899012 C115.942907,7.49870015 114.698271,9.99841018 113.279391,9.99841018 M117.187288,4.99942007 C118.431924,2.49971003 119.676562,0 121.09544,0 M125,4.99950506 C123.755364,2.49979502 122.51073,8.49901411e-05 121.091848,8.49901411e-05" id="path6681"></path>
        </g>
    </g>
</svg>