<?xml version="1.0" encoding="UTF-8" standalone="no"?>
<!-- Created with Inkscape (http://www.inkscape.org/) -->
<svg
   xmlns:svg="http://www.w3.org/2000/svg"
   xmlns="http://www.w3.org/2000/svg"
   version="1.0"
   width="1800pt"
   height="600pt"
   id="svg2">
  <defs
     id="defs4" />
  <g
     id="layer1">
    <g
       transform="matrix(0.312578,0,0,0.552047,68.91378,101.167)"
       id="g1430">
    
      <g
         transform="translate(-224,-2)"
         id="g1384">
        <g
           transform="translate(6.14935,-66.0035)"
           id="g1321" />
      </g>
   
      <path
         d="M -371.47305,772.50466 C -296.77829,822.50466 -222.08342,872.50466 -136.93138,872.50466 M 97.39498,772.50296 C 22.70011,822.50296 -51.99465,872.50296 -137.14681,872.50296 M 97.37957,772.51156 C 172.07455,722.51156 246.7693,672.51156 331.92135,672.51156 M 566.24782,772.51326 C 491.55284,722.51326 416.85808,672.51326 331.70592,672.51326 M 566.20428,772.48906 C 640.89915,822.48906 715.59391,872.48906 800.74607,872.48906 M 1035.0725,772.48736 C 960.37757,822.48736 885.68291,872.48736 800.53064,872.48736 M 1035.057,772.49596 C 1109.7518,722.49596 1184.4466,672.49596 1269.5988,672.49596 M 1503.9249,772.49766 C 1429.2301,722.49766 1354.5353,672.49766 1269.3834,672.49766 M 1503.9153,772.49016 C 1578.6099,822.49016 1653.3049,872.49016 1738.4569,872.49016 M 1972.7833,772.48846 C 1898.0884,822.48846 1823.3935,872.48846 1738.2415,872.48846 M 1972.7687,772.49706 C 2047.4635,722.49706 2122.1584,672.49706 2207.3103,672.49706 M 2441.6368,772.49876 C 2366.9419,722.49876 2292.2472,672.49876 2207.095,672.49876 M 2441.5924,772.47456 C 2516.287,822.47456 2590.982,872.47456 2676.1341,872.47456 M 2910.4604,772.47286 C 2835.7656,822.47286 2761.0707,872.47286 2675.9186,872.47286 M 2910.4458,772.48146 C 2985.1406,722.48146 3059.8355,672.48146 3144.9878,672.48146 M 3379.3139,772.48316 C 3304.6191,722.48316 3229.9242,672.48316 3144.7722,672.48316 M 3379.4307,772.50466 C 3454.1255,822.50466 3528.8203,872.50466 3613.9726,872.50466 M 3848.2989,772.50296 C 3773.6041,822.50296 3698.9093,872.50296 3613.757,872.50296 M 3848.2834,772.51156 C 3922.9783,722.51156 3997.6731,672.51156 4082.8253,672.51156 M 4317.1518,772.51326 C 4242.4569,722.51326 4167.7619,672.51326 4082.6099,672.51326 M 4317.1081,772.48906 C 4391.8031,822.48906 4466.4979,872.48906 4551.6499,872.48906 M 4785.9763,772.48736 C 4711.2816,822.48736 4636.5866,872.48736 4551.4347,872.48736 M 4785.961,772.49596 C 4860.6557,722.49596 4935.3506,672.49596 5020.5027,672.49596 M 5254.829,772.49766 C 5180.1342,722.49766 5105.4394,672.49766 5020.2872,672.49766 M 5254.8194,772.49016 C 5329.5142,822.49016 5404.2092,872.49016 5489.3611,872.49016 M 5723.6875,772.48846 C 5648.9927,822.48846 5574.2978,872.48846 5489.1458,872.48846 M 5723.6729,772.49706 C 5798.3678,722.49706 5873.0625,672.49706 5958.2147,672.49706 M 6192.5411,772.49876 C 6117.8462,722.49876 6043.1515,672.49876 5957.9993,672.49876 M 6192.4965,772.47456 C 6267.1915,822.47456 6341.8859,872.47456 6427.038,872.47456 M 6661.3643,772.47286 C 6586.6699,822.47286 6511.9749,872.47286 6426.8229,872.47286 M 6661.3496,772.48146 C 6736.0446,722.48146 6810.7397,672.48146 6895.8916,672.48146 M 7130.218,772.48316 C 7055.523,722.48316 6980.8281,672.48316 6895.676,672.48316"
         style="fill:none;fill-opacity:0.75;fill-rule:evenodd;stroke:#0000da;stroke-width:14.44388485;stroke-linecap:butt;stroke-linejoin:miter;stroke-miterlimit:4;stroke-dasharray:none;stroke-opacity:1"
         id="path6681" />
      
    </g>
  </g>
</svg>
