<?xml version="1.0" encoding="UTF-8" standalone="no"?>
<svg width="40px" height="40px" viewBox="0 0 40 40" version="1.1" xmlns="http://www.w3.org/2000/svg" xmlns:xlink="http://www.w3.org/1999/xlink">
    <!-- Generator: Sketch 46.2 (44496) - http://www.bohemiancoding.com/sketch -->
    <title>Shape</title>
    <desc>Created with Sketch.</desc>
    <defs></defs>
    <g id="Page-1" stroke="none" stroke-width="1" fill="none" fill-rule="evenodd">
        <g id="if_facebook_circle_color_107175" fill="#747474">
            <path d="M17.2152814,31 L21.6497896,31 L21.6497896,19.998652 L24.608101,19.998652 L25,16.2079657 L21.6497896,16.2079657 L21.6543924,14.3099265 C21.6543924,13.3218137 21.7464492,12.7913603 23.1299316,12.7913603 L24.9789584,12.7913603 L24.9789584,9 L22.0199895,9 C18.465939,9 17.2152814,10.8393995 17.2152814,13.9318015 L17.2152814,16.2079657 L15,16.2079657 L15,19.999326 L17.2152814,19.999326 L17.2152814,31 L17.2152814,31 Z M20,40 C8.95466667,40 0,31.0453333 0,20 C0,8.954 8.95466667,0 20,0 C31.0453333,0 40,8.954 40,20 C40,31.0453333 31.0453333,40 20,40 Z" id="Shape"></path>
        </g>
    </g>
</svg>