<?xml version="1.0" encoding="UTF-8" standalone="no"?>
<svg width="185px" height="15px" viewBox="0 0 185 15" version="1.1" xmlns="http://www.w3.org/2000/svg" xmlns:xlink="http://www.w3.org/1999/xlink">
    <!-- Generator: Sketch 46.2 (44496) - http://www.bohemiancoding.com/sketch -->
    <title>Sine_waves_different_frequencies</title>
    <desc>Created with Sketch.</desc>
    <defs></defs>
    <g id="Page-1" stroke="none" stroke-width="1" fill="none" fill-rule="evenodd">
        <g id="Sine_waves_different_frequencies" transform="translate(2.000000, 2.000000)" stroke="#B0B0B0" stroke-width="3">
            <path d="M0,5.50063793 C1.80222719,8.25031896 3.60445703,11 5.65899635,11 M11.3127977,5.50054444 C9.51056788,8.25022547 7.70834069,10.9999065 5.65379848,10.9999065 M11.3124259,5.50101738 C13.1146584,2.75133634 14.9168854,0.00165530798 16.9714249,0.00165530798 M22.6252289,5.50111087 C20.8229964,2.75142983 19.0207693,0.00174879714 16.966227,0.00174879714 M22.6241784,5.49978003 C24.4264083,8.24946106 26.2286354,10.9991421 28.2831777,10.9991421 M33.9369807,5.49968654 C32.1347494,8.24936757 30.3325247,10.9990486 28.2779798,10.9990486 M33.9366067,5.50015948 C35.7388349,2.75047844 37.541063,0.000797407501 39.5956062,0.000797407501 M45.2494013,5.50025297 C43.4471732,2.75057193 41.644945,0.000890896656 39.5904091,0.000890896656 M45.2491697,5.49984052 C47.051393,8.24952156 48.853626,10.9992026 50.9081644,10.9992026 M56.5619667,5.49974703 C54.7597361,8.24942807 52.9575056,10.9991091 50.9029672,10.9991091 M56.5616144,5.50021997 C58.3638426,2.75053894 60.1660731,0.000857900484 62.2206091,0.000857900484 M67.8744138,5.50031346 C66.0721833,2.75063243 64.2699575,0.000951389639 62.2154144,0.000951389639 M67.8733426,5.49898262 C69.6755659,8.24866366 71.4777989,10.9983447 73.5323396,10.9983447 M79.1861396,5.49888913 C77.3839114,8.24857017 75.5816808,10.9982512 73.5271401,10.9982512 M79.1857873,5.49936207 C80.9880154,2.74968104 82.790246,0 84.8447916,0 M90.4985867,5.49945556 C88.6963586,2.74977453 86.894128,9.34891553e-05 84.8395896,9.34891553e-05 M90.5014048,5.50063793 C92.303633,8.25031896 94.1058612,11 96.1604067,11 M101.814207,5.50054444 C100.011979,8.25022547 98.2097504,10.9999065 96.1552048,10.9999065 M101.813833,5.50101738 C103.616063,2.75133634 105.418291,0.00165530798 107.472835,0.00165530798 M113.126639,5.50111087 C111.324409,2.75142983 109.522176,0.00174879714 107.467637,0.00174879714 M113.125585,5.49978003 C114.927818,8.24946106 116.730046,10.9991421 118.784584,10.9991421 M124.438387,5.49968654 C122.636161,8.24936757 120.833928,10.9990486 118.779392,10.9990486 M124.438018,5.50015948 C126.240243,2.75047844 128.042474,0.000797407501 130.097015,0.000797407501 M135.750815,5.50025297 C133.948586,2.75057193 132.146358,0.000890896656 130.091815,0.000890896656 M135.750583,5.49984052 C137.552811,8.24952156 139.355044,10.9992026 141.40958,10.9992026 M147.063382,5.49974703 C145.261154,8.24942807 143.458924,10.9991091 141.404385,10.9991091 M147.06303,5.50021997 C148.865261,2.75053894 150.667486,0.000857900484 152.72203,0.000857900484 M158.375832,5.50031346 C156.573601,2.75063243 154.771376,0.000951389639 152.716832,0.000951389639 M158.374756,5.49898262 C160.176989,8.24866366 161.979207,10.9983447 164.033748,10.9983447 M169.687548,5.49888913 C167.88533,8.24857017 166.083097,10.9982512 164.028558,10.9982512 M169.687193,5.49936207 C171.489426,2.74968104 173.291662,0 175.346198,0 M181,5.49945556 C179.197767,2.74977453 177.395536,9.34891553e-05 175.340996,9.34891553e-05" id="path6681"></path>
        </g>
    </g>
</svg>