<?xml version="1.0" encoding="UTF-8" standalone="no"?>
<svg width="53px" height="36px" viewBox="0 0 53 36" version="1.1" xmlns="http://www.w3.org/2000/svg" xmlns:xlink="http://www.w3.org/1999/xlink">
    <!-- Generator: Sketch 46.2 (44496) - http://www.bohemiancoding.com/sketch -->
    <title>youtube</title>
    <desc>Created with Sketch.</desc>
    <defs></defs>
    <g id="Page-1" stroke="none" stroke-width="1" fill="none" fill-rule="evenodd">
        <g id="youtube" fill-rule="nonzero" fill="#747474">
            <path d="M50.9341968,3.09034405 C49.0210677,0.895354913 45.4888742,0 38.743171,0 L14.2563161,0 C7.35622903,0 3.76419677,0.9531091 1.85824839,3.29000853 C0,5.56849372 0,8.92566211 0,13.572069 L0,22.428096 C0,31.4296637 2.2048,36 14.2563161,36 L38.7433419,36 C44.5931742,36 47.8347226,35.2099227 49.9318129,33.2728473 C52.0824161,31.2864333 53,28.0431231 53,22.428096 L53,13.572069 C53,8.67203872 52.8562161,5.29506889 50.9341968,3.09034405 Z M34.026171,19.2227386 L22.906771,24.8316603 C22.6581839,24.9570694 22.3863452,25.0192789 22.1148484,25.0192789 C21.8074484,25.0192789 21.5007323,24.9394131 21.2290645,24.7806716 C20.717529,24.4815049 20.405171,23.9463711 20.405171,23.3691593 L20.405171,12.1872886 C20.405171,11.6110668 20.7166742,11.076428 21.2271839,10.7770963 C21.7378645,10.4777646 22.3730097,10.4573032 22.9028387,10.7229724 L34.0222387,16.2957564 C34.587971,16.579247 34.9432419,17.1429279 34.9440968,17.7579274 C34.9447806,18.3734221 34.5910484,18.937928 34.026171,19.2227386 Z" id="XMLID_823_"></path>
        </g>
    </g>
</svg>